<svg height="512pt" viewBox="0 0 512 512" width="512pt" xmlns="http://www.w3.org/2000/svg">
    <path stroke="rgb(130, 177, 255)" fill="rgb(130, 177, 255)" d="m511.910156 43.601562c-2.5625-15.417968-15.023437-27.277343-30.550781-29.074218-149.613281-19.371094-301.097656-19.371094-450.707031 0-15.53125 1.792968-28 13.652344-30.5625002 29.074218-.0585938.410157-.0898438.820313-.0898438 1.234376v422.199218c0 .414063.03125.824219.0898438 1.234375 2.5625002 15.417969 15.0234372 27.28125 30.5507812 29.074219 74.730469 9.675781 150.003906 14.527344 225.359375 14.527344 75.351562 0 150.625-4.851563 225.351562-14.527344 15.527344-1.789062 27.996094-13.652344 30.558594-29.074219.058594-.410156.089844-.820312.089844-1.234375v-422.199218c0-.414063-.03125-.824219-.089844-1.234376zm-16.976562 422.746094c-1.664063 7.609375-8.027344 13.285156-15.773438 14.070313-148.160156 19.175781-298.167968 19.175781-446.328125 0-7.742187-.789063-14.101562-6.464844-15.765625-14.070313v-420.824218c1.664063-7.605469 8.027344-13.28125 15.773438-14.070313 148.160156-19.175781 298.167968-19.175781 446.328125 0 7.742187.792969 14.101562 6.464844 15.765625 14.070313zm0 0"/>
    <path stroke="rgb(130, 177, 255)" fill="rgb(130, 177, 255)" d="m401.066406 281.535156c-.089844-80.078125-64.984375-144.976562-145.066406-145.066406-30.292969-.070312-59.832031 9.441406-84.394531 27.171875-9.628907-4.054687-20.746094-2.015625-28.308594 5.195313-7.445313 7.476562-9.535156 18.761718-5.265625 28.410156-17.6875 24.539062-27.167969 54.039062-27.097656 84.289062 0 80.121094 64.949218 145.066406 145.066406 145.066406s145.066406-64.945312 145.066406-145.066406zm-245.699218-100.632812c3.332031-3.332032 8.734374-3.332032 12.066406 0l96.242187 96.246094c1.601563 1.597656 2.5 3.765624 2.5 6.027343 0 2.265625-.898437 4.433594-2.5 6.03125v.003907c-3.335937 3.324218-8.734375 3.324218-12.066406 0l-96.242187-96.238282c-3.324219-3.335937-3.324219-8.734375 0-12.070312zm100.632812 228.632812c-70.660156-.078125-127.921875-57.339844-128-128-.082031-25.109375 7.300781-49.679687 21.203125-70.589844l90.339844 90.332032c10 9.980468 26.195312 9.984375 36.199219.003906v-.003906c4.800781-4.796875 7.5-11.308594 7.5-18.097656 0-6.789063-2.699219-13.300782-7.5-18.101563l-90.335938-90.339844c20.910156-13.90625 45.480469-21.285156 70.59375-21.203125 70.691406 0 128 57.308594 128 128 0 70.695313-57.308594 128-128 128zm0 0"/>
    <path stroke="rgb(130, 177, 255)" fill="rgb(130, 177, 255)" d="m392.535156 153.535156c-2.917968-.050781-5.625-1.523437-7.253906-3.945312-2.71875-3.800782-7.992188-4.710938-11.828125-2.035156-3.832031 2.675781-4.800781 7.9375-2.167969 11.800781 4.824219 6.992187 12.753906 11.191406 21.25 11.246093 10.117188.046876 19.300782-5.894531 23.40625-15.144531 4.109375-9.246093 2.355469-20.046875-4.464844-27.519531 6.820313-7.476562 8.574219-18.277344 4.464844-27.523438-4.105468-9.246093-13.289062-15.191406-23.40625-15.144531-8.496094.054688-16.425781 4.253907-21.25 11.246094-2.632812 3.863281-1.664062 9.125 2.167969 11.800781 3.835937 2.675782 9.109375 1.769532 11.828125-2.035156 1.628906-2.417969 4.335938-3.890625 7.253906-3.945312 4.710938 0 8.53125 3.820312 8.53125 8.535156 0 4.710937-3.820312 8.53125-8.53125 8.53125-4.714844 0-8.535156 3.820312-8.535156 8.535156 0 4.710938 3.820312 8.53125 8.535156 8.53125 4.710938 0 8.53125 3.820312 8.53125 8.535156 0 4.710938-3.820312 8.53125-8.53125 8.53125zm0 0"/>
    <path stroke="rgb(130, 177, 255)" fill="rgb(130, 177, 255)" d="m238.933594 119.402344h34.132812c4.714844 0 8.535156-3.820313 8.535156-8.53125 0-4.714844-3.820312-8.535156-8.535156-8.535156h-25.601562v-.265626c0-6.859374 6.25-11.367187 15.789062-17.457031 2.332032-1.488281 4.609375-2.953125 6.667969-4.429687 7.109375-4.421875 11.503906-12.140625 11.679687-20.515625 0-14.136719-11.464843-25.597657-25.601562-25.597657s-25.601562 11.460938-25.601562 25.597657c0 4.714843 3.820312 8.535156 8.535156 8.535156 4.710937 0 8.53125-3.820313 8.53125-8.535156 0-4.710938 3.824218-8.53125 8.535156-8.53125s8.535156 3.820312 8.535156 8.53125c0 1.667969-.542968 3.757812-4.578125 6.652343-1.824219 1.3125-3.839843 2.59375-5.898437 3.910157-9.984375 6.382812-23.660156 15.117187-23.660156 31.839843v8.800782c0 4.710937 3.820312 8.53125 8.535156 8.53125zm0 0"/>
    <path stroke="rgb(130, 177, 255)" fill="rgb(130, 177, 255)" d="m460.800781 238.871094c-4.714843 0-8.535156 3.820312-8.535156 8.53125v25.601562h-17.066406v-25.601562c0-4.710938-3.820313-8.53125-8.53125-8.53125-4.714844 0-8.535157 3.820312-8.535157 8.53125v34.132812c0 4.714844 3.820313 8.535156 8.535157 8.535156h25.597656v25.597657c0 4.714843 3.820313 8.535156 8.535156 8.535156 4.710938 0 8.53125-3.820313 8.53125-8.535156v-68.265625c0-4.710938-3.820312-8.53125-8.53125-8.53125zm0 0"/>
    <path stroke="rgb(130, 177, 255)" fill="rgb(130, 177, 255)" d="m108.433594 116.902344 2.5-2.5v47.667968c0 4.710938 3.820312 8.53125 8.53125 8.53125 4.714844 0 8.535156-3.820312 8.535156-8.53125v-68.265624c0-3.453126-2.078125-6.5625-5.269531-7.882813-3.1875-1.320313-6.855469-.589844-9.296875 1.847656l-17.066406 17.066407c-3.234376 3.347656-3.1875 8.671874.105468 11.960937 3.289063 3.292969 8.613282 3.339844 11.960938.105469zm0 0"/>
    <path stroke="rgb(130, 177, 255)" fill="rgb(130, 177, 255)" d="m76.800781 324.203125c9.421875-.011719 17.054688-7.644531 17.066407-17.066406v-51.199219c-.011719-9.421875-7.644532-17.058594-17.066407-17.066406h-17.066406c-9.421875.007812-17.058594 7.644531-17.066406 17.066406v51.199219c.007812 9.421875 7.644531 17.054687 17.066406 17.066406zm-17.066406-68.265625h17.066406l.007813 51.199219h-17.074219zm0 0"/>
    <path stroke="rgb(130, 177, 255)" fill="rgb(130, 177, 255)" d="m122.117188 386.148438c-2.269532-2.136719-5.527344-2.867188-8.492188-1.902344s-5.164062 3.472656-5.742188 6.535156c-.578124 3.0625.558594 6.199219 2.96875 8.175781 7.960938 7.054688 10.726563 18.296875 6.953126 28.238281-3.769532 9.945313-13.296876 16.519532-23.933594 16.519532-10.636719 0-20.164063-6.574219-23.933594-16.519532-3.773438-9.941406-1.007812-21.183593 6.953125-28.238281 2.410156-1.976562 3.546875-5.113281 2.96875-8.175781s-2.78125-5.570312-5.746094-6.535156c-2.960937-.964844-6.21875-.234375-8.488281 1.902344-13.292969 11.746093-17.933594 30.488281-11.652344 47.078124 6.277344 16.589844 22.164063 27.5625 39.902344 27.5625s33.625-10.972656 39.90625-27.5625c6.277344-16.589843 1.636719-35.332031-11.65625-47.078124zm0 0"/>
    <path stroke="rgb(130, 177, 255)" fill="rgb(130, 177, 255)" d="m85.332031 375.402344v34.132812c0 4.714844 3.820313 8.535156 8.535157 8.535156 4.710937 0 8.53125-3.820312 8.53125-8.535156v-34.132812c0-4.710938-3.820313-8.53125-8.53125-8.53125-4.714844 0-8.535157 3.820312-8.535157 8.53125zm0 0"/>
    <path stroke="rgb(130, 177, 255)" fill="rgb(130, 177, 255)" d="m187.734375 119.402344c0 4.714844-3.820313 8.535156-8.535156 8.535156-4.710938 0-8.53125-3.820312-8.53125-8.535156 0-4.710938 3.820312-8.53125 8.53125-8.53125 4.714843 0 8.535156 3.820312 8.535156 8.53125zm0 0"/>
    <path stroke="rgb(130, 177, 255)" fill="rgb(130, 177, 255)" d="m341.332031 119.402344c0 4.714844-3.820312 8.535156-8.53125 8.535156-4.714843 0-8.535156-3.820312-8.535156-8.535156 0-4.710938 3.820313-8.53125 8.535156-8.53125 4.710938 0 8.53125 3.820312 8.53125 8.53125zm0 0"/>
    <path stroke="rgb(130, 177, 255)" fill="rgb(130, 177, 255)" d="m426.667969 204.734375c0 4.714844-3.820313 8.535156-8.535157 8.535156-4.710937 0-8.53125-3.820312-8.53125-8.535156 0-4.710937 3.820313-8.53125 8.53125-8.53125 4.714844 0 8.535157 3.820313 8.535157 8.53125zm0 0"/>
    <path stroke="rgb(130, 177, 255)" fill="rgb(130, 177, 255)" d="m426.667969 358.335938c0 4.714843-3.820313 8.535156-8.535157 8.535156-4.710937 0-8.53125-3.820313-8.53125-8.535156 0-4.710938 3.820313-8.53125 8.53125-8.53125 4.714844 0 8.535157 3.820312 8.535157 8.53125zm0 0"/>
    <path stroke="rgb(130, 177, 255)" fill="rgb(130, 177, 255)" d="m102.398438 204.734375c0 4.714844-3.820313 8.535156-8.53125 8.535156-4.714844 0-8.535157-3.820312-8.535157-8.535156 0-4.710937 3.820313-8.53125 8.535157-8.53125 4.710937 0 8.53125 3.820313 8.53125 8.53125zm0 0"/>
    <path stroke="rgb(130, 177, 255)" fill="rgb(130, 177, 255)" d="m393.96875 379.203125c-17.363281 24.855469-41.824219 43.890625-70.183594 54.609375-2.980468.957031-5.199218 3.46875-5.78125 6.542969-.582031 3.078125.5625 6.222656 2.988282 8.207031 2.421874 1.980469 5.734374 2.480469 8.632812 1.300781 31.78125-11.960937 59.171875-33.300781 78.542969-61.195312 2.558593-3.917969 1.484375-9.167969-2.410157-11.765625-3.898437-2.597656-9.15625-1.570313-11.789062 2.300781zm0 0"/>
</svg>