<?xml version="1.0" encoding="utf-8"?>
<!-- Svg Vector Icons : http://www.onlinewebfonts.com/icon -->
<!DOCTYPE svg PUBLIC "-//W3C//DTD SVG 1.1//EN" "http://www.w3.org/Graphics/SVG/1.1/DTD/svg11.dtd">
<svg version="1.1" xmlns="http://www.w3.org/2000/svg" xmlns:xlink="http://www.w3.org/1999/xlink" x="0px" y="0px" viewBox="0 0 1000 1000" enable-background="new 0 0 1000 1000" xml:space="preserve">
<metadata> Svg Vector Icons : http://www.onlinewebfonts.com/icon </metadata>
<g><path  stroke="rgb(130, 177, 255)" fill="rgb(130, 177, 255)"  d="M500,9.8C229.4,9.8,10,229.3,10,500c0,270.7,219.4,490.2,490,490.2c270.6,0,490-219.5,490-490.2C990,229.3,770.6,9.8,500,9.8z M502.1,914.7c-227.6,0-415.7-185.4-415.7-414.1C86.4,272,271.7,86.6,500.3,86.6c228.6,0,413.9,185.4,413.9,414.1C914.2,729.3,729.7,914.7,502.1,914.7z M573.4,567.8l1.5-335.9c0-41.2-33.4-74.6-74.6-74.6c-41.2,0-74.6,33.4-74.6,74.6V564c-46.3,25.4-77.6,74.5-77.6,131c0,82.4,66.8,149.2,149.1,149.2S646.4,777.4,646.4,695C646.4,641.1,616.2,594,573.4,567.8z M497.3,819.3C428.7,819.3,373,763.6,373,695c0-52.1,32.2-96.6,77.7-115.2v-348c0-27.4,22.3-49.7,49.7-49.7c27.4,0,47.4,22.3,47.4,49.7v351c42.1,19.9,73.7,62.4,73.7,112.1C621.6,763.6,565.9,819.3,497.3,819.3z M621.3,330.6H696v-26.4h-74.7V330.6z M621.3,526.6H696v-26.3h-74.7V526.6z M525.3,600V253.3H474V598c-44.4,9.9-76.1,49.5-76.1,96.9c0,54.9,44.5,101,99.4,101c54.9,0,99.4-46.1,99.4-101C596.7,649.8,566.5,612.1,525.3,600z M621.3,280.9H696v-26.4h-74.7V280.9z M621.3,378.8l74.7-0.7v-24.8h-74.7V378.8z M621.3,427.2H696v-24.9h-74.7V427.2z M621.3,476.9H696V452h-74.7V476.9z"/></g>
</svg>