<?xml version="1.0" encoding="UTF-8" standalone="no"?>
<!-- Created with Inkscape (http://www.inkscape.org/) -->

<svg
   xmlns:svg="http://www.w3.org/2000/svg"
   xmlns="http://www.w3.org/2000/svg"
   version="1.0"
   width="1900"
   height="1900"
   id="svg1307">
  <defs
     id="defs3" />
  <path
     d="m 1069.1599,525.3812 80.8405,-309.88071 -53.877,-67.10016 -66.4358,376.98087 39.4723,0 z m -167.89702,0 L 854.41017,105.40023 948.91389,-9.9949399e-6 1042.1769,105.40023 995.11849,525.3812 l -93.85561,0 z m -74.10377,0 -77.15958,-309.88071 54.75063,-67.10016 61.94354,376.98087 -39.53459,0 z"
     id="path426-7-1"
     style="fill:#fcd116;fill-opacity:1" />
  <circle
     cx="82.530502"
     cy="149.8075"
     r="30.915501"
     transform="matrix(14.555838,0,0,14.555838,-251.30067,-1230.5737)"
     id="circle1323-7"
     style="fill:#fcd116;fill-opacity:1" />
  <path
     d="m 830.84012,1374.6188 -80.84059,309.8807 53.87702,67.1001 66.43586,-376.9808 -39.47229,0 z m 167.89698,0 46.8527,419.9809 -94.50371,105.4003 -93.26301,-105.4003 47.05841,-419.9809 93.85561,0 z m 74.1038,0 77.1595,309.8807 -54.7506,67.1001 -61.9435,-376.9808 39.5346,0 z"
     id="path2879"
     style="fill:#fcd116;fill-opacity:1" />
  <path
     d="m 1374.6188,1069.1598 309.8807,80.8406 67.1001,-53.877 -376.9808,-66.4358 0,39.4722 z m 0,-167.89694 419.9809,-46.8527 105.4003,94.50371 -105.4003,93.26303 -419.9809,-47.05842 0,-93.85562 z m 0,-74.10377 309.8807,-77.15957 67.1001,54.75062 -376.9808,61.94354 0,-39.53459 z"
     id="path2894"
     style="fill:#fcd116;fill-opacity:1" />
  <circle
     cx="82.530502"
     cy="149.8075"
     r="30.915501"
     transform="matrix(0,14.555838,-14.555838,0,3130.5737,-251.30069)"
     id="circle2896"
     style="fill:#fcd116;fill-opacity:1" />
  <path
     d="m 525.38121,830.8401 -309.88071,-80.84058 -67.10015,53.87702 376.98086,66.43585 0,-39.47229 z m 0,167.89699 L 105.40025,1045.5898 5e-6,951.08608 105.40025,857.82306 l 419.98096,47.05841 0,93.85562 z m 0,74.10381 -309.88071,77.1595 -67.10015,-54.7506 376.98086,-61.9435 0,39.5346 z"
     id="path2898"
     style="fill:#fcd116;fill-opacity:1" />
  <path
     d="m 734.00799,565.49039 -161.95587,-276.28173 -85.5438,-9.35013 219.58851,313.54292 27.91116,-27.91106 z m -118.72107,118.72107 -330.10126,-263.8415 -7.70502,-141.35343 140.47613,8.58232 263.6961,330.24666 -66.36595,66.36595 z m -52.39932,52.39932 -273.67883,-164.55867 -8.73242,-86.1616 310.36641,222.76511 -27.95516,27.95516 z"
     id="path2954"
     style="fill:#fcd116;fill-opacity:1" />
  <circle
     cx="82.530502"
     cy="149.8075"
     r="30.915501"
     transform="matrix(10.292532,-10.292532,10.292532,10.292532,-1441.3465,257.54938)"
     id="circle2956"
     style="fill:#fcd116;fill-opacity:1" />
  <path
     d="m 1165.9921,1334.5096 161.9559,276.2816 85.5438,9.3501 -219.5885,-313.5429 -27.9112,27.9112 z m 118.7211,-118.7212 330.1012,263.8415 7.705,141.3535 -140.4761,-8.5823 -263.696,-330.2468 66.3659,-66.3659 z m 52.3993,-52.3992 273.6788,164.5586 8.7324,86.1615 -310.3664,-222.765 27.9552,-27.9551 z"
     id="path2958"
     style="fill:#fcd116;fill-opacity:1" />
  <path
     d="m 1334.5096,734.00788 276.2817,-161.95577 9.3501,-85.5438 -313.5429,219.5885 27.9111,27.91107 z M 1215.7885,615.28681 1479.63,285.18555 l 141.3534,-7.70502 -8.5822,140.47612 -330.2467,263.69611 -66.366,-66.36595 z m -52.3992,-52.39933 164.5587,-273.67882 86.1615,-8.73242 -222.7651,310.36641 -27.9551,-27.95517 z"
     id="path2960"
     style="fill:#fcd116;fill-opacity:1" />
  <circle
     cx="82.530502"
     cy="149.8075"
     r="30.915501"
     transform="matrix(10.292532,10.292532,-10.292532,10.292532,1642.4507,-1441.3463)"
     id="circle2962"
     style="fill:#fcd116;fill-opacity:1" />
  <path
     d="m 565.49051,1165.992 -276.28174,161.9558 -9.35012,85.5438 313.54292,-219.5885 -27.91106,-27.9111 z m 118.72107,118.7211 -263.84151,330.1013 -141.35342,7.7049 8.58232,-140.4761 330.24666,-263.696 66.36595,66.3659 z m 52.39922,52.3993 -164.55868,273.6788 -86.1615,8.7324 222.76501,-310.3664 27.95517,27.9552 z"
     id="path2964"
     style="fill:#fcd116;fill-opacity:1" />
</svg>
