<?xml version="1.0" encoding="utf-8"?>
<!-- Svg Vector Icons : http://www.onlinewebfonts.com/icon -->
<!DOCTYPE svg PUBLIC "-//W3C//DTD SVG 1.1//EN" "http://www.w3.org/Graphics/SVG/1.1/DTD/svg11.dtd">
<svg version="1.1" xmlns="http://www.w3.org/2000/svg" xmlns:xlink="http://www.w3.org/1999/xlink" x="0px" y="0px" viewBox="0 0 1000 1000" enable-background="new 0 0 1000 1000" xml:space="preserve">
<metadata> Svg Vector Icons : http://www.onlinewebfonts.com/icon </metadata>
<g><g transform="translate(0.000000,511.000000) scale(0.100000,-0.100000)"><path d="M4192,3391.1c-120.3-27.5-354-113.4-515.5-192.4c-247.4-116.8-350.5-195.9-591.1-439.9c-429.6-433-639.2-900.4-659.8-1457.1l-10.3-230.2h-189c-687.3-3.4-1409-398.6-1783.5-976C219.4-244.7,123.2-560.8,102.6-990.4C75.1-1639.9,264.1-2121,731.5-2591.8c206.2-209.6,336.8-309.3,532.7-402c494.8-240.5,347.1-233.7,3646.1-223.4l2969.1,10.3l274.9,96.2c855.7,302.4,1481.1,979.4,1690.7,1838.5c75.6,309.3,72.1,883.2-3.5,1192.5c-216.5,886.6-945,1628.9-1824.7,1855.7c-278.3,72.2-749.1,99.7-969.1,61.8l-175.2-34.4l-75.6,192.5c-110,285.2-323,594.5-584.2,841.9C5683.4,3336.1,4910.2,3545.7,4192,3391.1z M5367.2,2641.9c305.9-144.3,601.4-419.3,749.2-694.2c48.1-92.8,130.6-319.6,182.1-498.3s106.5-340.2,120.3-354c13.8-17.2,185.6,3.4,378,41.2c814.5,165,1384.9,27.5,1897-467.4c1044.7-1010.3,615.1-2725.1-797.3-3192.5c-175.2-58.4-388.3-65.3-2948.5-75.6c-1817.9-6.9-2828.2,3.4-2955.4,27.5c-811,147.8-1367.7,917.5-1244,1707.9c96.2,591,488,1051.5,1044.7,1219.9c216.5,65.3,285.2,68.7,769.8,48.1l529.2-24.1l-24.1,457.1c-17.2,367.7-13.7,505.2,34.4,704.5c127.2,556.7,553.3,1006.9,1134,1202.8c89.4,27.5,261.2,41.2,501.7,34.4C5075.2,2769.1,5123.3,2758.8,5367.2,2641.9z"/></g></g>
</svg>